<svg version="1.1" id="Layer_1" xmlns="http://www.w3.org/2000/svg" xmlns:xlink="http://www.w3.org/1999/xlink" x="0px" y="0px"
	 width="100%" viewBox="0 0 880 1024" enable-background="new 0 0 880 1024" xml:space="preserve">
<path fill="#000000" opacity="1.000000" stroke="none" 
	d="
M463.000000,1025.000000 
	C308.666656,1025.000000 154.833328,1025.000000 1.000000,1025.000000 
	C1.000000,683.666687 1.000000,342.333344 1.000000,1.000000 
	C294.333344,1.000000 587.666687,1.000000 881.000000,1.000000 
	C881.000000,342.333344 881.000000,683.666687 881.000000,1025.000000 
	C741.833313,1025.000000 602.666687,1025.000000 463.000000,1025.000000 
M583.001526,195.502579 
	C540.379333,174.200729 497.682953,153.045410 455.177032,131.514023 
	C441.129181,124.398056 428.415558,123.245056 413.642975,131.324783 
	C381.743103,148.772110 348.939667,164.574707 316.419067,180.876999 
	C296.723785,190.750076 276.878296,200.324097 257.078186,209.987213 
	C232.656601,221.905762 208.225006,233.803955 183.772644,245.659195 
	C169.027679,252.808014 154.244949,259.879242 139.461533,266.948364 
	C117.141464,277.621307 94.812584,288.275848 72.474510,298.911041 
	C59.859619,304.916992 47.248154,310.931671 34.577862,316.819122 
	C27.759583,319.987335 21.108805,323.117004 17.979446,330.761505 
	C14.579772,339.066284 14.062965,347.793549 15.360660,356.318939 
	C16.569490,364.260529 20.739822,371.186249 28.032291,375.523254 
	C37.704636,381.275696 47.518616,386.792938 57.131187,392.642212 
	C77.052238,404.764191 96.933907,416.952881 116.729713,429.278046 
	C131.896378,438.721008 146.835266,448.529907 162.003494,457.970306 
	C183.167328,471.142242 204.443954,484.133118 225.684692,497.181305 
	C244.050293,508.463287 262.438141,519.709106 280.807068,530.985718 
	C299.584229,542.512939 318.410248,553.962280 337.101959,565.626648 
	C351.473969,574.595215 365.540955,584.056458 379.984161,592.906067 
	C392.981934,600.869934 406.213257,608.467346 419.520294,615.906677 
	C428.438110,620.892151 438.134796,622.493286 447.267090,617.103271 
	C468.864410,604.356384 490.186646,591.139038 511.514740,577.941650 
	C530.674683,566.085876 549.635742,553.908997 568.789490,542.043152 
	C595.854736,525.276184 623.098022,508.795837 650.116455,491.954315 
	C683.707153,471.016052 717.085999,449.738098 750.669922,428.788971 
	C776.599304,412.614746 802.590942,396.533356 828.795349,380.811432 
	C837.159668,375.793091 843.238098,369.565796 844.584778,359.790131 
	C845.282898,354.722870 845.168518,349.494415 844.945557,344.359406 
	C844.416260,332.162720 839.413025,322.611053 828.046387,316.994476 
	C790.106323,298.247375 752.185852,279.460724 714.257568,260.689850 
	C688.878418,248.129639 663.494934,235.578079 638.120483,223.008423 
	C619.947693,214.006210 601.786499,204.980392 583.001526,195.502579 
M334.639099,810.968140 
	C333.874756,810.322571 333.176788,809.570435 332.336426,809.046997 
	C309.675964,794.931580 286.913910,780.977295 264.350159,766.709290 
	C235.642899,748.556335 206.979263,730.329224 178.513565,711.801086 
	C155.729721,696.971252 133.269608,681.644104 109.418358,665.703979 
	C111.063774,664.856628 111.807877,664.480774 112.545555,664.092590 
	C121.500702,659.380432 130.363968,654.482971 139.428772,649.992249 
	C157.145264,641.215332 175.067261,632.849243 192.705490,623.920593 
	C198.778214,620.846558 205.109650,617.445129 209.809341,612.695557 
	C216.693375,605.738403 216.972733,596.041199 215.844833,586.887268 
	C214.787460,578.305603 211.555145,570.102966 204.707138,564.412109 
	C193.706635,555.270569 181.294968,555.567139 169.095215,561.511780 
	C138.428467,576.454956 107.968781,591.822571 77.390381,606.947876 
	C63.120247,614.006531 49.076340,621.657654 34.361305,627.642151 
	C20.880800,633.124695 10.871556,640.458618 8.521852,655.818237 
	C6.784629,667.174072 9.947422,683.494141 22.235533,691.040405 
	C33.481323,697.946472 44.652046,704.975220 55.831013,711.989441 
	C81.451141,728.064453 107.107468,744.082642 132.650284,760.279785 
	C151.694183,772.355835 170.514877,784.783875 189.558121,796.861023 
	C215.372650,813.232666 241.363358,829.326660 267.166870,845.715515 
	C285.386169,857.287354 303.368103,869.232300 321.548645,880.865784 
	C351.642700,900.122803 382.028748,918.932983 411.868866,938.573914 
	C430.363342,950.747070 449.109985,951.375366 467.534210,940.579956 
	C499.175995,922.039856 530.127686,902.324463 561.433350,883.207703 
	C597.799866,861.000549 634.288696,838.993469 670.624939,816.737183 
	C702.320496,797.323303 733.885925,777.696777 765.494141,758.140503 
	C795.720825,739.438843 825.901733,720.662842 856.164978,702.020569 
	C863.227173,697.670288 867.781494,691.608765 868.891235,683.502319 
	C869.779846,677.011780 870.193604,670.359375 869.883484,663.823181 
	C869.342957,652.430847 864.698181,643.001892 854.408020,637.133850 
	C849.386292,634.270142 844.214233,631.666199 839.074219,629.014465 
	C820.206299,619.280640 801.311035,609.599915 782.449219,599.854309 
	C760.146179,588.330566 737.904724,576.686707 715.554260,565.255920 
	C709.036255,561.922424 702.043701,560.824646 694.771240,562.705139 
	C684.040039,565.480103 678.041260,573.290649 673.786987,582.738708 
	C666.657410,598.572754 671.848999,615.148499 686.418091,623.005676 
	C700.859985,630.794128 715.505432,638.206238 729.925232,646.034424 
	C743.342041,653.318054 756.637085,660.832092 769.864014,668.456055 
	C774.416809,671.080383 774.308899,673.631531 769.945129,676.496765 
	C759.985291,683.036560 750.081787,689.670715 739.971069,695.970703 
	C705.428772,717.493896 670.827087,738.922180 636.208679,760.322937 
	C608.289490,777.582397 580.316223,794.754211 552.361877,811.956848 
	C517.846802,833.196838 483.317505,854.413696 448.820648,875.683167 
	C444.743713,878.196838 440.905884,878.763977 436.651794,875.964478 
	C427.234161,869.766968 417.703400,863.740417 408.186340,857.695190 
	C395.694000,849.760193 383.132599,841.933289 370.671082,833.950317 
	C358.861450,826.385132 347.142273,818.678650 334.639099,810.968140 
M383.000000,695.500000 
	C383.000000,667.849426 383.083008,640.198486 382.944244,612.548645 
	C382.907501,605.229187 379.224976,598.412720 366.134125,598.947815 
	C357.910248,599.283875 355.000122,602.418579 355.000092,611.910583 
	C354.999908,650.887878 355.002594,689.865173 354.996185,728.842468 
	C354.995514,733.059021 352.248474,735.200195 348.437683,735.001587 
	C342.320404,734.682739 336.115448,734.435669 330.053131,735.108887 
	C323.502045,735.836426 322.582367,738.780151 325.993439,744.495178 
	C337.360718,763.540588 348.630066,782.644470 359.989044,801.694824 
	C362.987518,806.723633 366.173523,811.640564 369.740631,817.357727 
	C371.950958,814.409851 373.486450,812.715576 374.620880,810.785645 
	C378.690247,803.862305 382.613251,796.853149 386.611084,789.887695 
	C395.648499,774.141541 404.759277,758.437134 413.702301,742.637695 
	C416.216644,738.195679 414.450317,735.330139 409.244537,735.023438 
	C402.010742,734.597290 394.768707,734.133606 387.527588,734.086426 
	C384.040436,734.063721 382.875854,732.988770 382.933563,729.479675 
	C383.114380,718.489075 383.000000,707.493591 383.000000,695.500000 
M506.523224,610.978394 
	C500.011353,621.696655 493.513794,632.423706 486.983337,643.130676 
	C481.368927,652.335876 475.649963,661.478027 470.107452,670.726074 
	C466.926727,676.033325 468.727203,678.992920 474.914307,678.999390 
	C478.247467,679.002808 481.596069,679.204773 484.910461,678.955261 
	C490.866699,678.506836 492.102203,680.439453 492.079041,686.016724 
	C491.926147,722.847656 492.106659,759.680176 491.904266,796.510559 
	C491.866699,803.352539 495.293457,808.655579 500.055267,811.629517 
	C505.612732,815.100403 512.520386,815.077209 518.862305,811.103577 
	C523.929199,807.928833 523.982910,803.228699 523.986145,798.335266 
	C524.011292,760.670410 524.055481,723.005432 523.929626,685.341003 
	C523.913940,680.640137 525.469482,678.718628 530.264954,678.933472 
	C536.382507,679.207642 542.521606,679.000000 550.342163,679.000000 
	C548.622009,674.188843 547.682251,669.998291 545.707947,666.370789 
	C541.866394,659.312561 537.445129,652.569763 533.263306,645.696777 
	C526.076782,633.885620 518.949463,622.037537 511.642792,610.301086 
	C510.450775,608.386353 508.445740,606.097107 506.523224,610.978394 
z"/>
<path fill="#FFFFFF" opacity="1.000000" stroke="none" 
	d="
M583.310852,195.733841 
	C601.786499,204.980392 619.947693,214.006210 638.120483,223.008423 
	C663.494934,235.578079 688.878418,248.129639 714.257568,260.689850 
	C752.185852,279.460724 790.106323,298.247375 828.046387,316.994476 
	C839.413025,322.611053 844.416260,332.162720 844.945557,344.359406 
	C845.168518,349.494415 845.282898,354.722870 844.584778,359.790131 
	C843.238098,369.565796 837.159668,375.793091 828.795349,380.811432 
	C802.590942,396.533356 776.599304,412.614746 750.669922,428.788971 
	C717.085999,449.738098 683.707153,471.016052 650.116455,491.954315 
	C623.098022,508.795837 595.854736,525.276184 568.789490,542.043152 
	C549.635742,553.908997 530.674683,566.085876 511.514740,577.941650 
	C490.186646,591.139038 468.864410,604.356384 447.267090,617.103271 
	C438.134796,622.493286 428.438110,620.892151 419.520294,615.906677 
	C406.213257,608.467346 392.981934,600.869934 379.984161,592.906067 
	C365.540955,584.056458 351.473969,574.595215 337.101959,565.626648 
	C318.410248,553.962280 299.584229,542.512939 280.807068,530.985718 
	C262.438141,519.709106 244.050293,508.463287 225.684692,497.181305 
	C204.443954,484.133118 183.167328,471.142242 162.003494,457.970306 
	C146.835266,448.529907 131.896378,438.721008 116.729713,429.278046 
	C96.933907,416.952881 77.052238,404.764191 57.131187,392.642212 
	C47.518616,386.792938 37.704636,381.275696 28.032291,375.523254 
	C20.739822,371.186249 16.569490,364.260529 15.360660,356.318939 
	C14.062965,347.793549 14.579772,339.066284 17.979446,330.761505 
	C21.108805,323.117004 27.759583,319.987335 34.577862,316.819122 
	C47.248154,310.931671 59.859619,304.916992 72.474510,298.911041 
	C94.812584,288.275848 117.141464,277.621307 139.461533,266.948364 
	C154.244949,259.879242 169.027679,252.808014 183.772644,245.659195 
	C208.225006,233.803955 232.656601,221.905762 257.078186,209.987213 
	C276.878296,200.324097 296.723785,190.750076 316.419067,180.876999 
	C348.939667,164.574707 381.743103,148.772110 413.642975,131.324783 
	C428.415558,123.245056 441.129181,124.398056 455.177032,131.514023 
	C497.682953,153.045410 540.379333,174.200729 583.310852,195.733841 
M504.959930,262.438019 
	C504.014465,261.825958 503.002686,261.295563 502.133240,260.589844 
	C484.616272,246.371719 463.786835,240.801697 442.005890,239.307846 
	C431.051300,238.556503 419.758728,240.337646 408.828186,242.201004 
	C392.965851,244.905090 378.278534,251.111481 365.573212,261.168060 
	C353.975891,270.347656 343.879364,280.804718 336.848846,294.213074 
	C327.762970,311.541351 323.935272,330.173187 323.306396,349.236023 
	C322.822083,363.917084 324.172821,378.832733 326.408386,393.382751 
	C328.876984,409.449371 334.733368,424.565979 343.703918,438.451752 
	C350.981232,449.716553 359.271393,460.239868 371.531830,465.553772 
	C393.819336,475.213593 417.132172,481.711060 441.843689,479.899567 
	C451.699432,479.177063 461.628998,478.023346 471.250549,475.850739 
	C489.726196,471.678802 506.015533,463.850037 518.466125,448.406586 
	C528.659973,435.762329 533.419556,421.785950 533.921143,406.069641 
	C534.314209,393.753052 534.024353,381.413818 533.991821,369.084747 
	C533.968567,360.292694 528.836853,355.178375 520.165955,354.981689 
	C508.748932,354.722717 497.336548,354.145966 485.919159,354.043152 
	C467.926727,353.881104 449.928406,353.800476 431.939636,354.104248 
	C425.310486,354.216187 420.968384,357.031464 420.998047,365.311371 
	C421.009979,368.643555 420.972626,371.976044 421.006134,375.307922 
	C421.062317,380.898041 424.892609,386.660950 430.184540,387.556458 
	C436.140259,388.564331 442.269379,388.943024 448.319733,388.913269 
	C460.569336,388.853058 472.816956,388.136383 485.064728,388.153625 
	C487.781433,388.157440 491.778046,388.623718 491.945923,392.856934 
	C492.440247,405.321167 489.752686,417.518646 480.246338,425.603455 
	C469.396790,434.830597 455.918701,439.923584 441.383057,440.967163 
	C430.351562,441.759186 419.589508,440.271942 409.338409,435.975189 
	C395.112579,430.012451 382.807281,421.810425 375.186646,407.695618 
	C369.309204,396.809509 367.707581,384.871887 367.269257,373.044312 
	C366.770935,359.597626 367.786285,346.019073 369.147583,332.599670 
	C370.626617,318.020172 378.342560,306.077850 388.594574,296.136078 
	C398.639008,286.395630 410.813507,280.775330 425.035706,278.771820 
	C442.887817,276.256989 457.952759,280.855927 471.242737,292.686890 
	C479.764313,300.272919 485.118988,309.583008 488.156372,320.511322 
	C488.739136,322.608063 491.034943,325.281921 492.991089,325.732300 
	C497.568512,326.786255 502.475159,327.293457 507.149689,326.886597 
	C525.336975,325.303741 532.476562,314.344238 527.949341,297.088593 
	C524.334167,283.308929 515.731995,272.510620 504.959930,262.438019 
z"/>
<path fill="#FFFFFF" opacity="1.000000" stroke="none" 
	d="
M335.011230,811.001221 
	C347.142273,818.678650 358.861450,826.385132 370.671082,833.950317 
	C383.132599,841.933289 395.694000,849.760193 408.186340,857.695190 
	C417.703400,863.740417 427.234161,869.766968 436.651794,875.964478 
	C440.905884,878.763977 444.743713,878.196838 448.820648,875.683167 
	C483.317505,854.413696 517.846802,833.196838 552.361877,811.956848 
	C580.316223,794.754211 608.289490,777.582397 636.208679,760.322937 
	C670.827087,738.922180 705.428772,717.493896 739.971069,695.970703 
	C750.081787,689.670715 759.985291,683.036560 769.945129,676.496765 
	C774.308899,673.631531 774.416809,671.080383 769.864014,668.456055 
	C756.637085,660.832092 743.342041,653.318054 729.925232,646.034424 
	C715.505432,638.206238 700.859985,630.794128 686.418091,623.005676 
	C671.848999,615.148499 666.657410,598.572754 673.786987,582.738708 
	C678.041260,573.290649 684.040039,565.480103 694.771240,562.705139 
	C702.043701,560.824646 709.036255,561.922424 715.554260,565.255920 
	C737.904724,576.686707 760.146179,588.330566 782.449219,599.854309 
	C801.311035,609.599915 820.206299,619.280640 839.074219,629.014465 
	C844.214233,631.666199 849.386292,634.270142 854.408020,637.133850 
	C864.698181,643.001892 869.342957,652.430847 869.883484,663.823181 
	C870.193604,670.359375 869.779846,677.011780 868.891235,683.502319 
	C867.781494,691.608765 863.227173,697.670288 856.164978,702.020569 
	C825.901733,720.662842 795.720825,739.438843 765.494141,758.140503 
	C733.885925,777.696777 702.320496,797.323303 670.624939,816.737183 
	C634.288696,838.993469 597.799866,861.000549 561.433350,883.207703 
	C530.127686,902.324463 499.175995,922.039856 467.534210,940.579956 
	C449.109985,951.375366 430.363342,950.747070 411.868866,938.573914 
	C382.028748,918.932983 351.642700,900.122803 321.548645,880.865784 
	C303.368103,869.232300 285.386169,857.287354 267.166870,845.715515 
	C241.363358,829.326660 215.372650,813.232666 189.558121,796.861023 
	C170.514877,784.783875 151.694183,772.355835 132.650284,760.279785 
	C107.107468,744.082642 81.451141,728.064453 55.831013,711.989441 
	C44.652046,704.975220 33.481323,697.946472 22.235533,691.040405 
	C9.947422,683.494141 6.784629,667.174072 8.521852,655.818237 
	C10.871556,640.458618 20.880800,633.124695 34.361305,627.642151 
	C49.076340,621.657654 63.120247,614.006531 77.390381,606.947876 
	C107.968781,591.822571 138.428467,576.454956 169.095215,561.511780 
	C181.294968,555.567139 193.706635,555.270569 204.707138,564.412109 
	C211.555145,570.102966 214.787460,578.305603 215.844833,586.887268 
	C216.972733,596.041199 216.693375,605.738403 209.809341,612.695557 
	C205.109650,617.445129 198.778214,620.846558 192.705490,623.920593 
	C175.067261,632.849243 157.145264,641.215332 139.428772,649.992249 
	C130.363968,654.482971 121.500702,659.380432 112.545555,664.092590 
	C111.807877,664.480774 111.063774,664.856628 109.418358,665.703979 
	C133.269608,681.644104 155.729721,696.971252 178.513565,711.801086 
	C206.979263,730.329224 235.642899,748.556335 264.350159,766.709290 
	C286.913910,780.977295 309.675964,794.931580 332.336426,809.046997 
	C333.176788,809.570435 333.874756,810.322571 335.011230,811.001221 
z"/>
<path fill="#FFFFFF" opacity="1.000000" stroke="none" 
	d="
M383.000000,696.000000 
	C383.000000,707.493591 383.114380,718.489075 382.933563,729.479675 
	C382.875854,732.988770 384.040436,734.063721 387.527588,734.086426 
	C394.768707,734.133606 402.010742,734.597290 409.244537,735.023438 
	C414.450317,735.330139 416.216644,738.195679 413.702301,742.637695 
	C404.759277,758.437134 395.648499,774.141541 386.611084,789.887695 
	C382.613251,796.853149 378.690247,803.862305 374.620880,810.785645 
	C373.486450,812.715576 371.950958,814.409851 369.740631,817.357727 
	C366.173523,811.640564 362.987518,806.723633 359.989044,801.694824 
	C348.630066,782.644470 337.360718,763.540588 325.993439,744.495178 
	C322.582367,738.780151 323.502045,735.836426 330.053131,735.108887 
	C336.115448,734.435669 342.320404,734.682739 348.437683,735.001587 
	C352.248474,735.200195 354.995514,733.059021 354.996185,728.842468 
	C355.002594,689.865173 354.999908,650.887878 355.000092,611.910583 
	C355.000122,602.418579 357.910248,599.283875 366.134125,598.947815 
	C379.224976,598.412720 382.907501,605.229187 382.944244,612.548645 
	C383.083008,640.198486 383.000000,667.849426 383.000000,696.000000 
z"/>
<path fill="#FFFFFF" opacity="1.000000" stroke="none" 
	d="
M506.744385,610.676331 
	C508.445740,606.097107 510.450775,608.386353 511.642792,610.301086 
	C518.949463,622.037537 526.076782,633.885620 533.263306,645.696777 
	C537.445129,652.569763 541.866394,659.312561 545.707947,666.370789 
	C547.682251,669.998291 548.622009,674.188843 550.342163,679.000000 
	C542.521606,679.000000 536.382507,679.207642 530.264954,678.933472 
	C525.469482,678.718628 523.913940,680.640137 523.929626,685.341003 
	C524.055481,723.005432 524.011292,760.670410 523.986145,798.335266 
	C523.982910,803.228699 523.929199,807.928833 518.862305,811.103577 
	C512.520386,815.077209 505.612732,815.100403 500.055267,811.629517 
	C495.293457,808.655579 491.866699,803.352539 491.904266,796.510559 
	C492.106659,759.680176 491.926147,722.847656 492.079041,686.016724 
	C492.102203,680.439453 490.866699,678.506836 484.910461,678.955261 
	C481.596069,679.204773 478.247467,679.002808 474.914307,678.999390 
	C468.727203,678.992920 466.926727,676.033325 470.107452,670.726074 
	C475.649963,661.478027 481.368927,652.335876 486.983337,643.130676 
	C493.513794,632.423706 500.011353,621.696655 506.744385,610.676331 
z"/>
<path fill="#000000" opacity="1.000000" stroke="none" 
	d="
M505.205017,262.703217 
	C515.731995,272.510620 524.334167,283.308929 527.949341,297.088593 
	C532.476562,314.344238 525.336975,325.303741 507.149689,326.886597 
	C502.475159,327.293457 497.568512,326.786255 492.991089,325.732300 
	C491.034943,325.281921 488.739136,322.608063 488.156372,320.511322 
	C485.118988,309.583008 479.764313,300.272919 471.242737,292.686890 
	C457.952759,280.855927 442.887817,276.256989 425.035706,278.771820 
	C410.813507,280.775330 398.639008,286.395630 388.594574,296.136078 
	C378.342560,306.077850 370.626617,318.020172 369.147583,332.599670 
	C367.786285,346.019073 366.770935,359.597626 367.269257,373.044312 
	C367.707581,384.871887 369.309204,396.809509 375.186646,407.695618 
	C382.807281,421.810425 395.112579,430.012451 409.338409,435.975189 
	C419.589508,440.271942 430.351562,441.759186 441.383057,440.967163 
	C455.918701,439.923584 469.396790,434.830597 480.246338,425.603455 
	C489.752686,417.518646 492.440247,405.321167 491.945923,392.856934 
	C491.778046,388.623718 487.781433,388.157440 485.064728,388.153625 
	C472.816956,388.136383 460.569336,388.853058 448.319733,388.913269 
	C442.269379,388.943024 436.140259,388.564331 430.184540,387.556458 
	C424.892609,386.660950 421.062317,380.898041 421.006134,375.307922 
	C420.972626,371.976044 421.009979,368.643555 420.998047,365.311371 
	C420.968384,357.031464 425.310486,354.216187 431.939636,354.104248 
	C449.928406,353.800476 467.926727,353.881104 485.919159,354.043152 
	C497.336548,354.145966 508.748932,354.722717 520.165955,354.981689 
	C528.836853,355.178375 533.968567,360.292694 533.991821,369.084747 
	C534.024353,381.413818 534.314209,393.753052 533.921143,406.069641 
	C533.419556,421.785950 528.659973,435.762329 518.466125,448.406586 
	C506.015533,463.850037 489.726196,471.678802 471.250549,475.850739 
	C461.628998,478.023346 451.699432,479.177063 441.843689,479.899567 
	C417.132172,481.711060 393.819336,475.213593 371.531830,465.553772 
	C359.271393,460.239868 350.981232,449.716553 343.703918,438.451752 
	C334.733368,424.565979 328.876984,409.449371 326.408386,393.382751 
	C324.172821,378.832733 322.822083,363.917084 323.306396,349.236023 
	C323.935272,330.173187 327.762970,311.541351 336.848846,294.213074 
	C343.879364,280.804718 353.975891,270.347656 365.573212,261.168060 
	C378.278534,251.111481 392.965851,244.905090 408.828186,242.201004 
	C419.758728,240.337646 431.051300,238.556503 442.005890,239.307846 
	C463.786835,240.801697 484.616272,246.371719 502.133240,260.589844 
	C503.002686,261.295563 504.014465,261.825958 505.205017,262.703217 
z"/>
</svg>