<svg xmlns="http://www.w3.org/2000/svg" aria-hidden="true" role="img" viewBox="0 0 880 1024"><path fill="#F0F0FF" stroke="none" d="M410.615723,133.561417 C413.858337,131.782196 416.820465,130.261459 419.697357,128.593719 C429.410583,122.962982 438.882935,124.966911 448.187622,129.564117 C474.412018,142.520889 500.618530,155.514420 526.787537,168.582657 C552.671570,181.508591 578.448181,194.650436 604.369629,207.500443 C630.424927,220.416809 656.635376,233.020035 682.713867,245.890060 C708.063904,258.400574 733.341858,271.057312 758.634583,283.683594 C781.394165,295.045349 804.072205,306.572510 826.906982,317.780640 C835.890076,322.189789 841.164368,329.298645 842.736694,338.783478 C844.572388,349.856934 844.956238,360.950989 838.529541,371.165771 C837.019470,373.566071 835.250793,375.266388 832.927979,376.602203 C791.919189,400.185760 752.372009,426.146179 712.393433,451.378693 C670.578125,477.770386 628.715881,504.088776 586.558655,529.918335 C555.757141,548.790344 525.427612,568.413391 494.480927,587.048401 C479.081360,596.321533 464.079590,606.256653 448.654114,615.484802 C438.623230,621.485596 427.784637,620.605347 418.126953,615.120056 C387.724884,597.852295 358.484283,578.657166 328.848053,560.118591 C311.205566,549.082520 293.292419,538.479980 275.542847,527.614075 C254.389572,514.664612 233.262497,501.672150 212.158035,488.643280 C187.375351,473.343689 162.438782,458.282257 137.914642,442.577728 C106.224297,422.284180 74.149956,402.626038 41.960594,383.146790 C38.115166,380.819763 34.214287,378.570282 30.239426,376.473846 C17.556513,369.784576 13.613358,358.738190 14.408751,345.237396 C14.724224,339.882690 15.648479,334.762909 18.029856,329.825012 C21.921320,321.755951 29.825581,319.478851 36.932789,316.056824 C53.708599,307.979492 70.553787,300.046356 87.362602,292.037445 C104.624802,283.812561 121.881508,275.576111 139.132706,267.328186 C162.977692,255.927734 186.863800,244.611816 210.643036,233.075668 C236.822815,220.374969 262.963867,207.591003 289.005554,194.610107 C312.375214,182.961121 335.551910,170.925644 358.880310,159.193115 C375.963013,150.601730 393.153625,142.224960 410.615723,133.561417 M502.797119,260.694122 C494.971924,254.313370 486.054871,249.873352 476.718262,246.249756 C465.212677,241.784363 453.160187,239.792053 440.926971,238.682724 C434.410706,238.091827 428.042511,239.129227 421.588440,239.826385 C405.399200,241.575104 389.637329,244.921158 375.523163,253.177475 C352.737640,266.506256 336.121796,285.368408 328.207886,310.884521 C322.240295,330.125336 320.733826,349.924042 322.002350,370.085815 C323.431793,392.805115 327.743500,414.625763 339.458862,434.404510 C347.421814,447.848206 356.767731,460.021820 371.685791,466.789246 C386.085388,473.321533 401.279816,476.857574 416.706818,479.488068 C434.527313,482.526642 452.156677,480.821350 469.702972,476.714355 C486.742828,472.725891 502.398529,466.506226 514.292725,452.942047 C522.718628,443.333191 530.014465,433.404114 531.912231,420.082336 C534.325256,403.143890 533.749451,386.194305 533.690369,369.225464 C533.658142,359.963196 528.075989,354.383667 518.809082,354.265686 C491.988678,353.924194 465.151306,354.131073 438.351532,353.216034 C419.029846,352.556335 418.861725,358.657898 419.144562,373.245972 C419.342651,383.463135 424.784027,389.045868 434.904266,389.052216 C450.899811,389.062286 466.895386,388.787262 482.891235,388.740845 C489.394348,388.721985 491.281464,390.974152 490.538849,397.297363 C490.402924,398.454620 490.403198,399.631836 490.209961,400.777802 C488.443451,411.251617 484.814606,421.614349 476.002319,427.391937 C451.200348,443.652832 425.026642,445.324646 398.603455,430.779938 C382.951538,422.164307 372.712250,409.652222 369.137939,391.505524 C366.102753,376.095825 366.182068,360.672119 367.008636,345.277954 C367.695892,332.478912 370.564056,319.712250 377.963623,308.889252 C391.387756,289.254303 409.657776,278.659180 434.164520,278.471344 C457.871643,278.289673 480.882690,297.447754 485.593964,318.298553 C486.377319,321.765228 487.645447,325.797546 492.008514,326.417572 C499.569489,327.492004 507.132141,328.269196 514.720337,325.882385 C525.246033,322.571594 531.708679,311.618988 528.921387,300.812714 C524.787598,284.786133 515.781311,271.849518 502.797119,260.694122 z" opacity="1"/><path fill="#F0F0FF" stroke="none" d="M744.234375,770.310791 C723.847412,782.673706 703.733948,794.785889 683.717896,807.056824 C648.521423,828.634216 613.426697,850.377686 578.210571,871.922729 C544.845764,892.335083 511.453217,912.704651 477.910767,932.822632 C468.568329,938.426025 459.665894,945.039856 448.314758,946.745544 C437.011963,948.444031 426.313995,947.372437 416.614349,941.201050 C378.827057,917.159180 341.165436,892.919861 303.409302,868.828857 C269.857910,847.420776 236.260162,826.085266 202.652161,804.766113 C163.431244,779.886353 124.189270,755.039734 84.932220,730.217041 C64.249702,717.139343 43.766663,703.716980 22.692532,691.300598 C13.021385,685.602600 9.328170,677.251099 7.973845,667.284790 C6.809119,658.713684 8.338538,650.373657 12.960047,642.790344 C15.716729,638.267029 19.258390,634.968994 24.200981,632.640015 C49.057407,620.927368 73.834297,609.040588 98.511696,596.954834 C121.983711,585.459473 145.338593,573.722351 168.669891,561.942871 C187.979660,552.193787 207.341766,560.741211 213.247192,581.734009 C216.094131,591.854431 215.288437,601.426636 209.829865,610.574219 C207.351776,614.727051 204.163208,617.566101 199.646133,619.617004 C170.078842,633.041565 140.968918,647.410522 112.432388,662.920105 C111.176552,663.602722 109.681458,664.165527 108.952583,666.316528 C115.179092,670.715271 121.410896,675.360535 127.880920,679.646057 C153.702606,696.749329 179.407181,714.040344 205.511993,730.702759 C243.973557,755.252502 282.804077,779.223328 321.356659,803.631531 C353.159454,823.766418 384.777557,844.192993 416.499329,864.456116 C423.516174,868.938232 430.724762,873.127197 437.642914,877.753479 C440.443390,879.626282 442.426300,879.476990 445.234924,877.731873 C474.517670,859.536926 503.838348,841.401489 533.258179,823.429077 C575.185181,797.816223 617.253235,772.434082 659.168640,746.802307 C696.108459,724.213379 732.679321,701.034546 768.911987,677.325806 C770.974243,675.976318 773.284302,674.848083 774.791992,672.117615 C770.882935,667.756775 765.435791,665.520935 760.477356,662.684814 C742.271423,652.271118 723.866760,642.214722 705.191833,632.660400 C699.564453,629.781433 694.036621,626.683777 688.290283,624.065857 C667.539001,614.611877 666.132874,592.140930 677.093506,575.951416 C686.584656,561.932190 700.390320,558.536377 715.433777,566.321411 C752.113342,585.303162 788.720825,604.424316 825.360779,623.482605 C835.104004,628.550598 845.042236,633.276978 854.555725,638.743652 C863.072937,643.637756 867.274231,651.984924 868.001526,661.385376 C868.775818,671.393860 869.853149,681.693481 864.601257,691.179626 C862.878723,694.291016 861.039429,697.136780 858.041626,699.190186 C840.584839,711.147339 822.203735,721.628174 804.309998,732.886780 C784.443787,745.386353 764.475525,757.723633 744.234375,770.310791 z" opacity="1"/><path fill="#F0F0FF" stroke="none" d="M354.654602,641.999878 C354.649658,630.670837 354.623260,619.841675 354.650330,609.012695 C354.663391,603.792664 357.178802,600.746216 362.311432,599.607117 C366.315887,598.718506 370.375153,599.095093 373.993774,600.683899 C378.659546,602.732544 381.329987,606.167786 381.304749,611.958801 C381.138031,650.276001 381.272247,688.594604 381.313782,726.912720 C381.322479,734.946838 381.332611,734.941467 389.611877,734.939148 C395.276276,734.937561 400.944122,734.832214 406.604126,734.993835 C412.940643,735.174805 414.715240,738.308594 411.587738,743.757080 C398.412720,766.709412 385.196136,789.637939 371.951843,812.550354 C369.749664,816.360046 368.431305,816.294067 366.094604,812.369263 C352.468719,789.482727 338.858948,766.586487 325.262634,743.682373 C322.097382,738.350342 323.916992,735.078308 330.192200,734.965881 C336.354431,734.855408 342.527771,734.755066 348.681854,735.004944 C353.181091,735.187622 354.770050,733.630493 354.740723,728.965820 C354.559387,700.144836 354.652924,671.322083 354.654602,641.999878 z" opacity="1"/><path fill="#F0F0FF" stroke="none" d="M502.287354,617.338867 C504.355774,614.383240 505.206665,610.994507 508.498077,608.460632 C511.702820,613.509949 514.748657,618.168579 517.654419,622.912964 C527.222595,638.535156 536.743408,654.186340 546.268921,669.834595 C546.873413,670.827637 547.393127,671.876038 547.900269,672.923828 C549.838318,676.927856 549.092651,678.546509 544.678772,678.757263 C539.527832,679.003052 534.350037,678.885376 529.191101,678.711304 C522.938904,678.500427 522.241089,679.021667 522.239563,685.240662 C522.230469,723.236633 522.239502,761.232666 522.245605,799.228638 C522.247009,807.680542 520.976074,809.553711 513.195190,812.504089 C503.740417,816.089294 491.801544,808.156738 491.791199,798.188049 C491.752655,761.025269 491.769653,723.862488 491.755371,686.699707 C491.752472,679.090881 490.742584,678.237854 483.022614,678.579773 C479.875549,678.719116 476.712128,678.529541 473.557495,678.441528 C471.807190,678.392700 469.858551,679.092285 468.625458,677.023132 C467.204651,674.639099 468.700806,672.933411 469.812134,671.091797 C477.467682,658.405762 485.108093,645.710632 492.762909,633.024231 C495.860046,627.891296 498.981018,622.772827 502.287354,617.338867 z" opacity="1"/></svg>